# xmcd
# Track frame offsets:
# 183
# 12463
# 24763
# 37408
# 48110
# 61010
# 74813
# 90023
# 100760
# 113038
# 124918
# 137380
# 148138
# 156183
# 170308
# 183428
#
# Disc length: 2610 seconds
# Revision: 0
# Processed by: cddbd v1.4PL0 Copyright (c) Steve Scherf et al.
# Submitted via: VisiTrax 2.9.5.180 - For more info visit www.synapsa.com
#
DISCID=d00a3010
DTITLE=Merle Haggard - Country Classics
DYEAR=1991
DGENRE=
TTITLE0=Okie From Muskogee
TTITLE1=If We Make It Through December
TTITLE2=Folsom Prison Blues
TTITLE3=My Rough And Rowdy Ways
TTITLE4=Waiting For A Train
TTITLE5=Branded Man
TTITLE6=I Threw Away The Rose
TTITLE7=Today I Startred Loving You Again
TTITLE8=Lovsick Blues
TTITLE9=Little Ole WIne Drinker Me
TTITLE10=I Never Go Around Mirrors
TTITLE11=The Waltz You Saved For Me
TTITLE12=Walking The Floor Over You
TTITLE13=Always Wanting You
TTITLE14=The Fightin´ Side Of Me
TTITLE15=The Roots Of My Rasing
EXTD=
EXTT0=
EXTT1=
EXTT2=
EXTT3=
EXTT4=
EXTT5=
EXTT6=
EXTT7=
EXTT8=
EXTT9=
EXTT10=
EXTT11=
EXTT12=
EXTT13=
EXTT14=
EXTT15=
PLAYORDER=
